<mxfile host="app.diagrams.net" modified="2023-09-14T02:10:33.559Z" agent="Mozilla/5.0 (Windows NT 10.0; Win64; x64) AppleWebKit/537.36 (KHTML, like Gecko) Chrome/114.0.0.0 Safari/537.36" version="21.7.5" etag="80mmpIwK5Su09C6Zjmh0" type="github">
  <diagram name="第 1 页" id="LAoditofhoc_6gXE95Bl">
    <mxGraphModel>
      <root>
        <mxCell id="0" />
        <mxCell id="1" parent="0" />
      </root>
    </mxGraphModel>
  </diagram>
</mxfile>
